<?xml version="1.0" encoding="UTF-8"?>
<svg xmlns="http://www.w3.org/2000/svg" version="1.1" viewBox="0 0 998.6 327.6">
  <defs>
    <style>
      .cls-1 {
        fill: #fff;
      }
    </style>
  </defs>
  <!-- Generator: Adobe Illustrator 28.6.0, SVG Export Plug-In . SVG Version: 1.2.0 Build 709)  -->
  <g>
    <g id="Ebene_2">
      <g id="_图层_1">
        <g>
          <path class="cls-1" d="M971,33.3l.8-.2c4.2-1,6.5-3.6,6.9-7.9.5-5.2-1.8-9.2-7.1-10.5-1.6-.4-3.2-.6-4.9-.7-3.7-.1-7.5,0-11.2,0h-.7v36.7h6.9v-15c3.1-.5,5.2.6,6.5,3.5,1.6,3.6,3.2,7.2,4.7,10.9.1.5.6.8,1.1.8h7.4c-2.4-4.9-4.7-9.6-7-14.3-.7-1.5-1.9-2.6-3.4-3.2ZM968.9,29.2c-1.5.7-3.2,1-4.9,1-2.4,0-2.4,0-2.4-2.4v-8.2c2.2.2,4.3.2,6.3.6,1.9.2,3.4,1.8,3.5,3.6.3,2.5-.6,4.3-2.5,5.4h0Z"/>
          <path class="cls-1" d="M966.3.5c-17.8,0-32.3,14.4-32.3,32.3s14.4,32.3,32.3,32.3,32.2-14.4,32.3-32.2c0-17.8-14.4-32.3-32.2-32.3,0,0,0,0,0,0ZM966.3,59.3c-15.6,0-26.5-10.9-26.5-26.5s10.9-26.5,26.5-26.5,26.5,10.9,26.5,26.5-10.9,26.5-26.5,26.5Z"/>
        </g>
        <path class="cls-1" d="M122.8.5H0v112.4h121.2c30.3,0,54.9,24.5,54.9,54.9h0c0,29.9-24,54.3-53.8,54.8h-49.4v35.3h50.1c49.8,0,90.1-40.3,90.1-90.1h0c0-49.8-40.3-90.1-90.1-90.1H36.8v-40.9h81.6c70.2,0,129.9,59.7,129.9,129.8h0c0,70.2-59.7,124.2-129.9,124.2H36.8v-107h84.3c10.8,0,19.3-7.7,19.7-17.3.4-10.9-8.8-19.6-19.7-19.6H0v180.4h122.8c90.2,0,163.4-73.1,163.4-163.4h0C286.2,73.7,213.1.5,122.8.5Z"/>
        <path class="cls-1" d="M323.4,149.8V0h51.2C421.3,0,451.4,32.6,451.4,75s-30.1,74.8-76.8,74.8h-51.2ZM432.1,75c0-32.3-20.4-58.4-57.5-58.4h-32.6v116.5h32.6c36.4,0,57.5-26.1,57.5-58.2h0Z"/>
        <path class="cls-1" d="M468,14.6c0-6.3,5.1-11.4,11.5-11.4,6.2,0,11.3,5.1,11.2,11.4h0c0,6.2-4.8,11.2-11,11.3h-.2c-6.2,0-11.4-4.9-11.5-11.1h0ZM470.9,149.8V41.3h16.8v108.4h-16.8Z"/>
        <path class="cls-1" d="M512.2,177.4l8.5-12.1c9,10.6,19.8,14.6,35.2,14.6s35-8.8,35-31.7v-16.4c-8.1,11-21.3,19.3-36.6,19.3-28.3,0-48.3-21.1-48.3-56.1s19.8-56.4,48.3-56.4,27.8,7.2,36.6,19.1v-16.4h16.8v106.9c0,34.4-25.4,45.6-51.9,45.6s-30.8-3.6-43.8-16.4h0ZM591,118.5v-47.6c-6.1-9.2-19.1-17.3-32.3-17.3-22,0-35,17.3-35,41.3s13,41.1,35,41.1,26.3-8.1,32.3-17.5h0Z"/>
        <path class="cls-1" d="M629.6,14.6c0-6.3,5.1-11.4,11.5-11.4,6.2,0,11.3,5.1,11.2,11.4h0c0,6.2-4.8,11.2-11,11.3h-.2c-6.2,0-11.4-4.9-11.5-11.1h0ZM632.5,149.8V41.3h16.8v108.4h-16.8Z"/>
        <path class="cls-1" d="M322,324.9v-145.9h53.4c10-.1,19.9,1.4,29.4,4.5,8.6,2.7,16.1,7.9,21.7,15,5.5,7,8.2,16.7,8.2,29s-2.7,21.5-8.2,29.1c-5.4,7.5-12.9,13.3-21.6,16.7-9.1,3.6-18.8,5.5-28.6,5.4h-15.7v46.3h-38.6ZM360.7,248.1h13.9c7.6,0,13.3-1.8,17-5.5s5.5-8.7,5.5-15.2c0-6.6-2-11.2-6.1-13.9s-9.8-4-17.3-4.1h-13v38.6s0,0,0,0Z"/>
        <path class="cls-1" d="M597.3,327.6c-7,0-13.1-1.6-18.1-4.8-4.9-3.1-8.9-7.5-11.6-12.7-2.7-5.3-4.1-11.1-4-17.1,0-11.7,4.8-20.8,14.4-27.5s25.2-11.1,46.7-13.4c-.9-7.8-6.1-11.7-15.7-11.7-4.4,0-8.7.8-12.8,2.3-5.3,2-10.5,4.3-15.5,7.1l-13.5-25.1c7.6-4.6,15.7-8.3,24.1-11,8.2-2.6,16.7-3.8,25.3-3.8,14.7,0,26.1,4.1,34.3,12.5,8.2,8.3,12.3,21.7,12.3,40.1v62.4h-31.4l-2.7-10.8h-.9c-4.3,3.9-9.1,7.2-14.2,9.8-5.2,2.5-11,3.8-16.8,3.7h0ZM610.8,298c2.8.1,5.5-.6,7.9-2.1,2.2-1.6,4.3-3.4,6.1-5.5v-15.3c-9.1,1.3-15.5,3.4-19,6.1-3.5,2.7-5.3,5.6-5.3,8.8,0,5.4,3.5,8.1,10.4,8.1h0Z"/>
        <path class="cls-1" d="M679.5,324.9v-112.3h31.4l2.7,19.3h.9c4.2-7.6,9.2-13.2,14.9-16.7s11.4-5.3,17-5.3c2.8,0,5.6.1,8.4.6,1.9.3,3.8.9,5.5,1.7l-6.3,33.2c-2-.4-3.9-.9-5.8-1.2-2.2-.4-4.5-.6-6.7-.6-4,0-8.3,1.4-12.7,4.1s-8,7.7-10.7,14.7v62.4h-38.6Z"/>
        <path class="cls-1" d="M764.3,324.9v-112.3h31.4l2.7,13.7h.9c4.4-4.3,9.3-8.1,14.5-11.4,5.2-3.3,11.6-4.9,19.2-4.9s14,1.5,19,4.6c5.2,3.2,9.3,7.9,12,13.4,4.5-4.7,9.6-8.9,15-12.6,5.4-3.6,11.9-5.4,19.5-5.4,12.4,0,21.4,4.1,27,12.5,5.6,8.3,8.4,19.4,8.4,33.4v69.1h-38.6v-64.2c0-7.2-.9-12-2.7-14.4s-4.7-3.6-8.6-3.6c-4.8,0-10,2.9-15.7,8.5v73.6h-38.6v-64.2c0-7.2-.9-12-2.7-14.4s-4.6-3.6-8.5-3.6c-4.8,0-10,2.9-15.7,8.5v73.6h-38.6Z"/>
        <path class="cls-1" d="M543.7,222.4c-5.5-8.3-14.4-12.4-26.8-12.5-7.6,0-14.2,1.5-19.6,4.6-5,2.8-9.7,6-14,9.8l1.8-19.3v-26h-38.6v145.9h38.6v-73.6c2.5-2.3,5.2-4.4,8.1-6.3,2.7-1.6,5.9-2.4,9-2.2,3.9,0,6.7,1.2,8.5,3.6s2.7,7.2,2.7,14.4v64.2h38.6v-69.1c0-13.9-2.8-25.1-8.2-33.4h0Z"/>
      </g>
    </g>
  </g>
</svg>