<svg width="512" height="152" role="img" viewBox="0 0 512 152" fill="currentColor" xmlns="http://www.w3.org/2000/svg" class="w-auto fill-accent h-6"><path d="M153.922 0L113.439 92.091L72.9558 0H42.343L88.8342 105.124C93.0304 114.672 102.377 121.403 113.439 121.403C124.502 121.403 133.895 114.672 138.043 105.124L184.535 0H153.922Z"></path><path d="M30.6128 0H0L46.4913 105.124C50.6874 114.672 60.0334 121.403 71.0959 121.403C75.3398 121.403 79.2975 120.401 82.8259 118.635L30.6128 0Z"></path><path d="M380.536 41.6295H379.678C377.818 39.1948 375.577 36.9033 372.906 34.7072C366.66 30.0764 359.699 27.7848 351.926 27.7848C340.387 27.7848 330.707 32.0815 322.934 40.6747C315.115 49.3157 311.252 60.5824 311.252 74.5703C311.252 88.5586 315.162 99.873 322.934 108.466C330.707 117.107 340.387 121.356 351.926 121.356C359.651 121.356 366.66 119.064 372.906 114.434C375.577 112.237 377.818 109.946 379.678 107.511H380.536V118.778H404.807V30.3628H380.536V41.6295ZM374.29 93.7621C370.141 98.3446 364.705 100.637 357.982 100.637C351.64 100.637 346.443 98.3446 342.389 93.7145C338.337 89.0836 336.333 82.734 336.333 74.6658C336.333 66.5977 338.337 60.2005 342.389 55.5697C346.443 50.9389 351.64 48.6474 357.982 48.6474C364.658 48.6474 370.093 50.9389 374.29 55.522C378.438 60.105 380.536 66.5022 380.536 74.7135C380.536 82.9252 378.438 89.3223 374.29 93.8573V93.7621Z"></path><path d="M259.612 27.7848C251.886 27.7848 244.877 30.0764 238.631 34.7072C235.961 36.9033 233.719 39.2425 231.86 41.6295H231.002V30.3628H206.73V151.766H231.002V107.511H231.86C233.719 109.946 235.961 112.237 238.631 114.434C244.877 119.064 251.839 121.356 259.612 121.356C271.151 121.356 280.83 117.059 288.603 108.466C296.423 99.8246 300.285 88.5586 300.285 74.5704C300.285 60.5824 296.375 49.268 288.603 40.6747C280.83 32.0815 271.151 27.7848 259.612 27.7848ZM269.101 93.6661C265.047 98.2971 259.85 100.589 253.508 100.589C246.832 100.589 241.396 98.297 237.248 93.7145C233.099 89.1788 231.002 82.7816 231.002 74.5704C231.002 66.359 233.099 59.9618 237.248 55.3787C241.396 50.8434 246.832 48.5041 253.508 48.5041C259.85 48.5041 265.047 50.8434 269.101 55.4265C273.153 60.0573 275.156 66.4067 275.156 74.5226C275.156 82.6389 273.153 88.9876 269.101 93.571V93.6661Z"></path><path d="M486.918 30.3629L467.845 98.0108H460.931L443.574 30.3629H418.492L441.858 118.826H460.931L451.394 151.766H476.524L512 30.3629H486.918Z"></path></svg>